<svg width="36" height="39" viewBox="0 0 36 39" fill="none" xmlns="http://www.w3.org/2000/svg">
<g clip-path="url(#clip0_74_1117)">
<path d="M18 0C10.8109 0 4.96216 6.33613 4.96216 14.1242C4.96216 23.7895 16.6297 37.9788 17.1265 38.5781C17.5931 39.1411 18.4077 39.1401 18.8735 38.5781C19.3702 37.9788 31.0378 23.7895 31.0378 14.1242C31.0377 6.33613 25.189 0 18 0ZM18 21.2305C14.383 21.2305 11.4404 18.0427 11.4404 14.1242C11.4404 10.2058 14.383 7.01802 18 7.01802C21.6169 7.01802 24.5595 10.2059 24.5595 14.1243C24.5595 18.0428 21.6169 21.2305 18 21.2305Z" fill="#043566"/>
</g>
<defs>
<clipPath id="clip0_74_1117">
<rect width="36" height="39" rx="10" fill="white"/>
</clipPath>
</defs>
</svg>
