<svg width="22" height="23" viewBox="0 0 22 23" fill="none" xmlns="http://www.w3.org/2000/svg">
<g id="mail">
<g clip-path="url(#clip0_71_870)">
<g id="Group">
<g id="Group_2">
<path id="Vector" d="M21.8062 5.35431L15.134 11.9835L21.8062 18.6127C21.9268 18.3606 22 18.0819 22 17.7843V6.1827C22 5.88506 21.9268 5.60641 21.8062 5.35431Z" fill="white"/>
</g>
</g>
<g id="Group_3">
<g id="Group_4">
<path id="Vector_2" d="M20.0664 4.24908H1.93362C1.63597 4.24908 1.35732 4.32226 1.10522 4.44287L9.63293 12.9276C10.3869 13.6816 11.6131 13.6816 12.3671 12.9276L20.8948 4.44287C20.6427 4.32226 20.3641 4.24908 20.0664 4.24908Z" fill="white"/>
</g>
</g>
<g id="Group_5">
<g id="Group_6">
<path id="Vector_3" d="M0.193789 5.35431C0.0731758 5.60641 0 5.88506 0 6.1827V17.7843C0 18.0819 0.0731758 18.3606 0.193789 18.6127L6.86593 11.9835L0.193789 5.35431Z" fill="white"/>
</g>
</g>
<g id="Group_7">
<g id="Group_8">
<path id="Vector_4" d="M14.2227 12.8948L13.2785 13.8389C12.0222 15.0953 9.97784 15.0953 8.72148 13.8389L7.77737 12.8948L1.10522 19.524C1.35732 19.6446 1.63597 19.7177 1.93362 19.7177H20.0664C20.3641 19.7177 20.6427 19.6446 20.8948 19.524L14.2227 12.8948Z" fill="white"/>
</g>
</g>
</g>
</g>
<defs>
<clipPath id="clip0_71_870">
<rect y="0.983398" width="22" height="22" rx="10" fill="white"/>
</clipPath>
</defs>
</svg>
