<svg width="22" height="22" viewBox="0 0 22 22" fill="none" xmlns="http://www.w3.org/2000/svg">
<g id="phone-receiver-silhouette">
<g clip-path="url(#clip0_71_887)">
<g id="Group">
<path id="Vector" d="M18.9556 15.312C17.6266 14.1753 16.2778 13.4868 14.9651 14.6217L14.1813 15.3077C13.6078 15.8057 12.5415 18.1323 8.41877 13.3897C4.29694 8.65319 6.74978 7.91571 7.32414 7.42205L8.11228 6.73522C9.41811 5.59766 8.92531 4.16562 7.9835 2.69152L7.41514 1.79864C6.46904 0.327964 5.43879 -0.63789 4.12952 0.497954L3.42209 1.1161C2.84344 1.53764 1.22595 2.90787 0.833602 5.51095C0.361406 8.63431 1.85097 12.211 5.26365 16.1353C8.67204 20.0614 12.0092 22.0335 15.1703 21.9991C17.7974 21.9708 19.384 20.5611 19.8802 20.0485L20.5902 19.4295C21.8961 18.2946 21.0848 17.139 19.7549 15.9997L18.9556 15.312Z" fill="white"/>
</g>
</g>
</g>
<defs>
<clipPath id="clip0_71_887">
<rect width="22" height="22" rx="10" fill="white"/>
</clipPath>
</defs>
</svg>
