<svg width="36" height="36" viewBox="0 0 36 36" fill="none" xmlns="http://www.w3.org/2000/svg">
<g id="mail">
<g clip-path="url(#clip0_73_1090)">
<g id="Group">
<g id="Group_2">
<path id="Vector" d="M35.6829 7.15234L24.7649 18.0001L35.6829 28.8478C35.8803 28.4353 36.0001 27.9793 36.0001 27.4923V8.5079C36.0001 8.02084 35.8803 7.56487 35.6829 7.15234Z" fill="#043566"/>
</g>
</g>
<g id="Group_3">
<g id="Group_4">
<path id="Vector_2" d="M32.836 5.34375H3.16415C2.67709 5.34375 2.22112 5.46349 1.80859 5.66086L15.763 19.545C16.9969 20.7788 19.0033 20.7788 20.2371 19.545L34.1916 5.66086C33.7791 5.46349 33.3231 5.34375 32.836 5.34375Z" fill="#043566"/>
</g>
</g>
<g id="Group_5">
<g id="Group_6">
<path id="Vector_3" d="M0.317109 7.15234C0.119742 7.56487 0 8.02084 0 8.5079V27.4923C0 27.9793 0.119742 28.4354 0.317109 28.8478L11.2352 18.0001L0.317109 7.15234Z" fill="#043566"/>
</g>
</g>
<g id="Group_7">
<g id="Group_8">
<path id="Vector_4" d="M23.2735 19.4915L21.7285 21.0364C19.6727 23.0923 16.3274 23.0923 14.2716 21.0364L12.7266 19.4915L1.80859 30.3392C2.22112 30.5366 2.67709 30.6563 3.16415 30.6563H32.836C33.3231 30.6563 33.7791 30.5366 34.1916 30.3392L23.2735 19.4915Z" fill="#043566"/>
</g>
</g>
</g>
</g>
<defs>
<clipPath id="clip0_73_1090">
<rect width="36" height="36" rx="10" fill="white"/>
</clipPath>
</defs>
</svg>
