<svg width="33" height="33" viewBox="0 0 33 33" fill="none" xmlns="http://www.w3.org/2000/svg">
<g id="phone-receiver-silhouette">
<g clip-path="url(#clip0_74_1131)">
<g id="Group">
<path id="Vector" d="M28.4335 22.9679C26.44 21.2629 24.4168 20.2301 22.4478 21.9325L21.272 22.9615C20.4118 23.7084 18.8123 27.1984 12.6283 20.0845C6.44553 12.9797 10.1248 11.8735 10.9863 11.133L12.1685 10.1028C14.1273 8.39643 13.3881 6.24837 11.9754 4.03721L11.1228 2.69789C9.70368 0.491885 8.15831 -0.956896 6.19441 0.74687L5.13326 1.67409C4.26528 2.3064 1.83905 4.36174 1.25052 8.26636C0.542232 12.9514 2.77657 18.3164 7.8956 24.2029C13.0082 30.0921 18.0139 33.0502 22.7556 32.9987C26.6963 32.9562 29.0761 30.8416 29.8205 30.0728L30.8855 29.1443C32.8442 27.4418 31.6273 25.7084 29.6325 23.9995L28.4335 22.9679Z" fill="#043566"/>
</g>
</g>
</g>
<defs>
<clipPath id="clip0_74_1131">
<rect width="33" height="33" rx="10" fill="white"/>
</clipPath>
</defs>
</svg>
